<svg width="34" height="45" viewBox="0 0 34 45" fill="none" xmlns="http://www.w3.org/2000/svg">
<path d="M33.7436 15.6875L15.1768 44.2484C15.0221 44.6994 14.4032 45 13.9391 45C13.7843 45 13.6296 45 13.4749 44.8497C12.856 44.549 12.3918 43.9478 12.5465 43.1962L15.1768 23.9552H1.56119C0.942292 23.9552 0.478122 23.6545 0.168675 23.2035C-0.140772 22.7526 0.0139513 22.1513 0.323398 21.7003L15.7957 0.655499C16.2599 0.0542175 16.8788 -0.0961028 17.4977 0.0542175C18.1166 0.204538 18.5808 0.805819 18.5808 1.4071V13.4327H32.5059C33.1248 13.4327 33.5889 13.7334 33.8984 14.1843C34.0531 14.6353 34.0531 15.2366 33.7436 15.6875Z" fill="#FFC10A"/>
</svg>
