<svg width="47" height="40" viewBox="0 0 47 40" fill="none" xmlns="http://www.w3.org/2000/svg">
<path fill-rule="evenodd" clip-rule="evenodd" d="M14.273 19.8825H31.9704L45.2435 39H1L14.273 19.8825Z" fill="#5EA7FF" stroke="#B4DFFB" stroke-width="1.875" stroke-linecap="round" stroke-linejoin="round"/>
<path d="M8.3739 29.0589H37.8695" stroke="#B4DFFB" stroke-width="1.875" stroke-linecap="square"/>
<path d="M14.2731 38.8615L19.7855 19.8825" stroke="#B4DFFB" stroke-width="1.875" stroke-linecap="round"/>
<path d="M31.584 38.8615L26.0715 19.8825" stroke="#B4DFFB" stroke-width="1.875" stroke-linecap="round"/>
<path fill-rule="evenodd" clip-rule="evenodd" d="M28.5004 7.05862C29.0274 9.09833 31.1227 10.2883 33.1804 9.71657C35.238 9.14481 40.6089 3.69399 40.6089 3.69399C40.6089 3.69399 33.3295 1.75836 31.2719 2.33012C29.2142 2.90189 27.9734 5.0189 28.5004 7.05862Z" fill="#80D25B"/>
<path fill-rule="evenodd" clip-rule="evenodd" d="M18.4874 7.05785C17.9604 9.09756 15.8651 10.2876 13.8074 9.71581C11.7498 9.14404 6.37888 3.69322 6.37888 3.69322C6.37888 3.69322 13.6583 1.75759 15.7159 2.32936C17.7736 2.90112 19.0144 5.01814 18.4874 7.05785Z" fill="#80D25B"/>
<path d="M31.9704 6.11783C27.0834 6.11783 23.1217 10.2263 23.1217 15.2942" stroke="#22BA8E" stroke-width="1.875" stroke-linecap="round"/>
<path d="M14.273 6.11783C19.16 6.11783 23.1217 10.2263 23.1217 15.2942" stroke="#22BA8E" stroke-width="1.875" stroke-linecap="round"/>
</svg>
