<svg width="34" height="30" viewBox="0 0 34 30" fill="none" xmlns="http://www.w3.org/2000/svg">
<path d="M33.275 27.75L18.35 0.75001C18.2063 0.533421 18.0113 0.355752 17.7823 0.232848C17.5533 0.109944 17.2974 0.0456238 17.0375 0.0456238C16.7776 0.0456238 16.5217 0.109944 16.2927 0.232848C16.0637 0.355752 15.8687 0.533421 15.725 0.75001L0.724998 27.75C0.594317 27.9763 0.525009 28.2328 0.523938 28.4941C0.522868 28.7553 0.590071 29.0124 0.718892 29.2397C0.847714 29.4671 1.03369 29.6568 1.25839 29.7901C1.48309 29.9235 1.73874 29.9958 2 30H32C32.2613 29.9958 32.5169 29.9235 32.7416 29.7901C32.9663 29.6568 33.1523 29.4671 33.2811 29.2397C33.4099 29.0124 33.4771 28.7553 33.4761 28.4941C33.475 28.2328 33.4057 27.9763 33.275 27.75ZM20.6 16.95L14.15 24.6C14.1102 24.6696 14.0444 24.7206 13.967 24.7417C13.8897 24.7628 13.8071 24.7523 13.7375 24.7125C13.6679 24.6727 13.6169 24.6069 13.5958 24.5296C13.5747 24.4522 13.5852 24.3696 13.625 24.3L15.5 18.75H12.5C12.3607 18.75 12.2242 18.7112 12.1057 18.638C11.9872 18.5648 11.8915 18.46 11.8292 18.3354C11.7669 18.2108 11.7405 18.0714 11.753 17.9327C11.7655 17.7939 11.8164 17.6614 11.9 17.55L18.35 9.82501C18.575 9.60001 19.025 9.90001 18.875 10.2L17 15.75H20C20.1393 15.75 20.2758 15.7888 20.3943 15.862C20.5128 15.9352 20.6085 16.04 20.6708 16.1646C20.7331 16.2892 20.7595 16.4286 20.747 16.5674C20.7345 16.7061 20.6836 16.8386 20.6 16.95Z" fill="#FF4141"/>
</svg>
