<svg width="28" height="28" viewBox="0 0 28 28" fill="none" xmlns="http://www.w3.org/2000/svg">
<path d="M6.77419 27.0968H0.451613C0.180645 27.0968 0 27.2774 0 27.5484C0 27.8194 0.180645 28 0.451613 28H6.77419C7.04516 28 7.22581 27.8194 7.22581 27.5484C7.22581 27.2774 7.04516 27.0968 6.77419 27.0968Z" fill="#FF4E47"/>
<path d="M23.9355 27.0968H18.0645V24.3871H27.1871C27.6387 24.3871 27.9097 23.9806 27.9097 23.6194V23.4839L27.729 22.8065C27.6839 22.5806 27.4129 22.4 27.1871 22.4903C26.9613 22.5355 26.7806 22.8065 26.871 23.0323L26.9613 23.4387H21.6323L21.1355 19.8258H25.9677L26.3742 21.3161C26.4194 21.4968 26.6 21.6323 26.8258 21.6323H26.9613C27.1871 21.5871 27.3677 21.3161 27.2774 21.0903L24.4323 10.4323C24.4323 10.3871 24.4323 10.3871 24.3871 10.3419C24.2968 10.1613 24.071 9.89032 23.7548 9.89032H4.24516C3.97419 9.89032 3.70323 10.071 3.56774 10.3419C3.56774 10.3871 3.52258 10.3871 3.52258 10.4323L3.29677 11.2C3.25161 11.4258 3.3871 11.6968 3.6129 11.7419C3.83871 11.7871 4.10968 11.6516 4.15484 11.4258L4.33548 10.7935H8.03871L7.54194 14.4065H3.43226L3.79355 13.0968C3.83871 12.871 3.70323 12.6 3.47742 12.5548C3.25161 12.5097 2.98065 12.6452 2.93548 12.871L0.135484 23.4839C0.0903226 23.6645 0.0903226 23.9355 0.225806 24.1161C0.36129 24.2968 0.541936 24.3871 0.767742 24.3871H9.93548V27.0968H8.58064C8.30968 27.0968 8.12903 27.2774 8.12903 27.5484C8.12903 27.8194 8.30968 28 8.58064 28H14C14.271 28 14.4516 27.8194 14.4516 27.5484C14.4516 27.2774 14.271 27.0968 14 27.0968H10.8387V24.3871H17.1613V27.0968H15.8065C15.5355 27.0968 15.3548 27.2774 15.3548 27.5484C15.3548 27.8194 15.5355 28 15.8065 28H23.9355C24.2065 28 24.3871 27.8194 24.3871 27.5484C24.3871 27.2774 24.2065 27.0968 23.9355 27.0968ZM25.7419 18.9677H21L20.5032 15.3548H24.7484L25.7419 18.9677ZM14.4516 10.8387H19.0129L19.1032 11.471C19.1484 11.6968 19.329 11.8774 19.5548 11.8774H19.6C19.8258 11.8323 20.0065 11.6065 20.0065 11.3806L19.9161 10.8387H23.5742L24.5226 14.4516H20.4129L20.2323 13.1419C20.1871 12.9161 19.9613 12.7355 19.7355 12.7355C19.5097 12.7806 19.329 13.0065 19.329 13.2323L19.4645 14.4065H14.4516V10.8387ZM8.9871 10.8387H13.5484V14.4516H8.49032L8.9871 10.8387ZM6.36774 23.4839H1.03871L1.9871 19.871H6.86452L6.36774 23.4839ZM2.2129 18.9677L3.16129 15.3548H7.45161L6.95484 18.9677H2.2129ZM13.5484 23.4839H7.27097L7.76774 19.871H13.5484V23.4839ZM14 17.9742C13.729 17.9742 13.5484 18.1548 13.5484 18.4258V18.9677H7.90323L8.4 15.3548H13.5484V16.7548C13.5484 17.0258 13.729 17.2064 14 17.2064C14.271 17.2064 14.4516 17.0258 14.4516 16.7548V15.3548H19.6452L20.1419 18.9677H14.4516V18.4258C14.4516 18.2 14.271 17.9742 14 17.9742ZM14.4516 23.4839V19.871H20.2323L20.729 23.4839H14.4516ZM27.5484 27.0968H25.7419C25.471 27.0968 25.2903 27.2774 25.2903 27.5484C25.2903 27.8194 25.471 28 25.7419 28H27.5484C27.8194 28 28 27.8194 28 27.5484C28 27.2774 27.8194 27.0968 27.5484 27.0968ZM1.35484 4.51613C1.62581 4.51613 1.80645 4.33548 1.80645 4.06452C1.80645 3.79355 1.62581 3.6129 1.35484 3.6129C1.08387 3.6129 0.903226 3.43226 0.903226 3.16129C0.903226 2.89032 1.08387 2.70968 1.35484 2.70968C1.62581 2.70968 1.80645 2.52903 1.80645 2.25806C1.80645 1.9871 1.9871 1.80645 2.25806 1.80645H2.30323C2.52903 1.89677 2.8 1.85161 2.89032 1.62581C3.11613 1.17419 3.56774 0.903226 4.06452 0.903226C4.83226 0.903226 5.41935 1.49032 5.41935 2.25806C5.41935 2.52903 5.6 2.70968 5.87097 2.70968C6.14194 2.70968 6.32258 2.89032 6.32258 3.16129C6.32258 3.43226 6.14194 3.6129 5.87097 3.6129H3.25161C2.98064 3.6129 2.8 3.79355 2.8 4.06452C2.8 4.33548 2.98064 4.51613 3.25161 4.51613H5.87097C6.63871 4.51613 7.22581 3.92903 7.22581 3.16129C7.22581 2.57419 6.81935 2.03226 6.27742 1.85161C6.09677 0.812903 5.19355 0 4.06452 0C3.34194 0 2.66452 0.316129 2.25806 0.903226C1.67097 0.903226 1.12903 1.30968 0.948387 1.85161C0.406452 2.03226 0 2.52903 0 3.16129C0 3.92903 0.587097 4.51613 1.35484 4.51613ZM22.129 4.51613H26.6452C27.4129 4.51613 28 3.92903 28 3.16129C28 2.39355 27.4129 1.80645 26.6452 1.80645C26.3742 1.80645 26.1935 1.9871 26.1935 2.25806C26.1935 2.52903 26.3742 2.70968 26.6452 2.70968C26.9161 2.70968 27.0968 2.89032 27.0968 3.16129C27.0968 3.43226 26.9161 3.6129 26.6452 3.6129H22.129C21.8581 3.6129 21.6774 3.43226 21.6774 3.16129C21.6774 2.89032 21.8581 2.70968 22.129 2.70968C22.4 2.70968 22.5806 2.52903 22.5806 2.25806C22.5806 1.9871 22.7613 1.80645 23.0323 1.80645H23.0774C23.3032 1.89677 23.5742 1.85161 23.6645 1.62581C23.8903 1.17419 24.3419 0.903226 24.8387 0.903226C25.0645 0.903226 25.2903 0.948387 25.471 1.08387C25.6968 1.21935 25.9677 1.12903 26.1032 0.903226C26.2387 0.677419 26.1484 0.406452 25.9226 0.270968C25.6065 0.0903226 25.2 0 24.8387 0C24.1161 0 23.4387 0.316129 23.0323 0.903226C22.4 0.903226 21.9032 1.30968 21.7226 1.85161C21.1806 2.03226 20.7742 2.52903 20.7742 3.16129C20.7742 3.92903 21.3613 4.51613 22.129 4.51613ZM11.2903 9.03226C11.5613 9.03226 11.7419 8.85161 11.7419 8.58064C11.7419 7.31613 12.7355 6.32258 14 6.32258C15.2645 6.32258 16.2581 7.31613 16.2581 8.58064C16.2581 8.85161 16.4387 9.03226 16.7097 9.03226C16.9806 9.03226 17.1613 8.85161 17.1613 8.58064C17.1613 6.81935 15.7613 5.41935 14 5.41935C12.2387 5.41935 10.8387 6.81935 10.8387 8.58064C10.8387 8.85161 11.0194 9.03226 11.2903 9.03226ZM14 4.51613C14.271 4.51613 14.4516 4.33548 14.4516 4.06452V3.16129C14.4516 2.89032 14.271 2.70968 14 2.70968C13.729 2.70968 13.5484 2.89032 13.5484 3.16129V4.06452C13.5484 4.33548 13.729 4.51613 14 4.51613ZM10.4774 5.69032C10.5677 5.78065 10.7032 5.82581 10.7935 5.82581C10.8839 5.82581 11.0194 5.78065 11.1097 5.69032C11.2903 5.50968 11.2903 5.23871 11.1097 5.05806L10.4774 4.42581C10.2968 4.24516 10.0258 4.24516 9.84516 4.42581C9.66452 4.60645 9.66452 4.87742 9.84516 5.05806L10.4774 5.69032ZM8.58064 9.03226H9.48387C9.75484 9.03226 9.93548 8.85161 9.93548 8.58064C9.93548 8.30968 9.75484 8.12903 9.48387 8.12903H8.58064C8.30968 8.12903 8.12903 8.30968 8.12903 8.58064C8.12903 8.85161 8.30968 9.03226 8.58064 9.03226ZM18.0645 8.58064C18.0645 8.85161 18.2452 9.03226 18.5161 9.03226H19.4194C19.6903 9.03226 19.871 8.85161 19.871 8.58064C19.871 8.30968 19.6903 8.12903 19.4194 8.12903H18.5161C18.2452 8.12903 18.0645 8.30968 18.0645 8.58064ZM17.2064 5.82581C17.3419 5.82581 17.4323 5.78065 17.5226 5.69032L18.1548 5.05806C18.3355 4.87742 18.3355 4.60645 18.1548 4.42581C17.9742 4.24516 17.7032 4.24516 17.5226 4.42581L16.8903 5.05806C16.7097 5.23871 16.7097 5.50968 16.8903 5.69032C16.9806 5.78065 17.071 5.82581 17.2064 5.82581Z" fill="#FF4E47"/>
<path d="M23.0325 22.129C23.0325 22.4 23.2131 22.5806 23.4841 22.5806H25.0196C25.2454 22.5806 25.426 22.4903 25.5615 22.3097C25.697 22.129 25.697 21.9032 25.6518 21.7226L25.426 21.0903C25.3357 20.8645 25.0647 20.729 24.8389 20.8194C24.6131 20.9097 24.4776 21.1806 24.568 21.4065L24.6583 21.7226H23.4841C23.2131 21.6774 23.0325 21.8581 23.0325 22.129ZM2.57441 22.5806H2.70989C2.89054 22.5806 3.07118 22.4452 3.1615 22.2645L3.43247 21.3613C3.52279 21.1355 3.38731 20.8645 3.11634 20.8194C2.89054 20.729 2.61957 20.8645 2.57441 21.1355L2.30344 22.0387C2.21312 22.2194 2.3486 22.4903 2.57441 22.5806ZM16.7099 21.6774H15.8067C15.5357 21.6774 15.3551 21.8581 15.3551 22.129C15.3551 22.4 15.5357 22.5806 15.8067 22.5806H16.7099C16.9809 22.5806 17.1615 22.4 17.1615 22.129C17.1615 21.8581 16.9809 21.6774 16.7099 21.6774Z" fill="#FF4E47"/>
</svg>
