<svg width="42" height="38" viewBox="0 0 42 38" fill="none" xmlns="http://www.w3.org/2000/svg">
<path d="M20.9644 0L29.7799 7.9757L20.9644 15.9514L12.1488 7.9757L20.9644 0Z" fill="#FF9800"/>
<path d="M14.3448 2.06039H27.5862V14.0403H14.3448V2.06039Z" fill="#FF9800"/>
<path d="M20.9656 12.0436C23.4032 12.0436 25.3793 10.2557 25.3793 8.05027C25.3793 5.84483 23.4032 4.05698 20.9656 4.05698C18.5279 4.05698 16.5518 5.84483 16.5518 8.05027C16.5518 10.2557 18.5279 12.0436 20.9656 12.0436Z" fill="#FFEB3B"/>
<path d="M3.97241 19.531L0 34.0066H41.931L37.9586 19.531C37.7379 18.6325 36.8552 18.0335 35.8621 18.0335H6.17931C5.07586 18.0335 4.1931 18.6325 3.97241 19.531Z" fill="#BF360C"/>
<path d="M0 36.0034V34.0067H41.931V36.0034C41.931 37.1015 40.9379 38 39.7241 38H2.2069C0.993104 38 0 37.1015 0 36.0034Z" fill="#9E2D0A"/>
<path d="M14.3449 20.0302H6.62077L5.51732 24.0234H13.9035L14.3449 20.0302ZM25.3794 20.0302H16.5518L16.2208 24.0234H25.7104L25.3794 20.0302ZM35.3104 20.0302H27.5863L28.0277 24.0234H36.4139L35.3104 20.0302ZM3.31042 32.01H12.9104L13.5725 26.0201H4.9656L3.31042 32.01ZM29.0208 32.01H38.6208L36.9656 26.0201H28.3587L29.0208 32.01ZM15.5587 32.01H26.3725L25.9311 26.0201H16.0001L15.5587 32.01Z" fill="#F57C00"/>
</svg>
